<svg viewBox="0 0 30 30" fill="none" xmlns="http://www.w3.org/2000/svg"><g filter="url(#a)"><path fill-rule="evenodd" clip-rule="evenodd" d="M4 22.25c0-.506.36-.917.806-.917h20.388c.445 0 .806.41.806.917 0 .506-.36.917-.806.917H4.806c-.445 0-.806-.41-.806-.917Z" fill="#fff"/></g><g filter="url(#b)"><path fill-rule="evenodd" clip-rule="evenodd" d="M4 14c0-.506.36-.917.806-.917h20.388c.445 0 .806.41.806.917 0 .506-.36.917-.806.917H4.806C4.36 14.917 4 14.507 4 14Z" fill="#fff"/></g><g filter="url(#c)"><path fill-rule="evenodd" clip-rule="evenodd" d="M4 5.75c0-.506.36-.917.806-.917h20.388c.445 0 .806.41.806.917 0 .506-.36.917-.806.917H4.806C4.36 6.667 4 6.257 4 5.75Z" fill="#fff"/></g><g filter="url(#d)"><path d="M9.5 24.083a1.833 1.833 0 1 0 0-3.666 1.833 1.833 0 0 0 0 3.666Z" fill="#909EC1"/></g><g filter="url(#e)"><path d="M20.5 15.833a1.833 1.833 0 1 0 0-3.666 1.833 1.833 0 0 0 0 3.666Z" fill="#909EC1"/></g><g filter="url(#f)"><path d="M15 7.583a1.833 1.833 0 1 0 0-3.666 1.833 1.833 0 0 0 0 3.666Z" fill="#909EC1"/></g><path fill-rule="evenodd" clip-rule="evenodd" d="M9.5 21.167a1.083 1.083 0 1 0 0 2.166 1.083 1.083 0 0 0 0-2.166ZM6.75 22.25a2.75 2.75 0 1 1 5.5 0 2.75 2.75 0 0 1-5.5 0ZM20.5 12.917a1.083 1.083 0 1 0 0 2.166 1.083 1.083 0 0 0 0-2.166ZM17.75 14a2.75 2.75 0 1 1 5.5 0 2.75 2.75 0 0 1-5.5 0ZM15 4.667a1.083 1.083 0 1 0 0 2.166 1.083 1.083 0 0 0 0-2.166ZM12.25 5.75a2.75 2.75 0 1 1 5.5 0 2.75 2.75 0 0 1-5.5 0Z" fill="#fff"/><defs><filter id="a" x="0" y="18.333" width="30" height="9.833" filterUnits="userSpaceOnUse" color-interpolation-filters="sRGB"><feFlood flood-opacity="0" result="BackgroundImageFix"/><feColorMatrix in="SourceAlpha" values="0 0 0 0 0 0 0 0 0 0 0 0 0 0 0 0 0 0 127 0" result="hardAlpha"/><feOffset dy="1"/><feGaussianBlur stdDeviation="2"/><feComposite in2="hardAlpha" operator="out"/><feColorMatrix values="0 0 0 0 0.670588 0 0 0 0 0.670588 0 0 0 0 0.670588 0 0 0 0.8 0"/><feBlend in2="BackgroundImageFix" result="effect1_dropShadow"/><feBlend in="SourceGraphic" in2="effect1_dropShadow" result="shape"/></filter><filter id="b" x="0" y="10.083" width="30" height="9.833" filterUnits="userSpaceOnUse" color-interpolation-filters="sRGB"><feFlood flood-opacity="0" result="BackgroundImageFix"/><feColorMatrix in="SourceAlpha" values="0 0 0 0 0 0 0 0 0 0 0 0 0 0 0 0 0 0 127 0" result="hardAlpha"/><feOffset dy="1"/><feGaussianBlur stdDeviation="2"/><feComposite in2="hardAlpha" operator="out"/><feColorMatrix values="0 0 0 0 0.670588 0 0 0 0 0.670588 0 0 0 0 0.670588 0 0 0 0.8 0"/><feBlend in2="BackgroundImageFix" result="effect1_dropShadow"/><feBlend in="SourceGraphic" in2="effect1_dropShadow" result="shape"/></filter><filter id="c" x="0" y="1.833" width="30" height="9.833" filterUnits="userSpaceOnUse" color-interpolation-filters="sRGB"><feFlood flood-opacity="0" result="BackgroundImageFix"/><feColorMatrix in="SourceAlpha" values="0 0 0 0 0 0 0 0 0 0 0 0 0 0 0 0 0 0 127 0" result="hardAlpha"/><feOffset dy="1"/><feGaussianBlur stdDeviation="2"/><feComposite in2="hardAlpha" operator="out"/><feColorMatrix values="0 0 0 0 0.670588 0 0 0 0 0.670588 0 0 0 0 0.670588 0 0 0 0.8 0"/><feBlend in2="BackgroundImageFix" result="effect1_dropShadow"/><feBlend in="SourceGraphic" in2="effect1_dropShadow" result="shape"/></filter><filter id="d" x="3.667" y="17.417" width="11.667" height="11.667" filterUnits="userSpaceOnUse" color-interpolation-filters="sRGB"><feFlood flood-opacity="0" result="BackgroundImageFix"/><feColorMatrix in="SourceAlpha" values="0 0 0 0 0 0 0 0 0 0 0 0 0 0 0 0 0 0 127 0" result="hardAlpha"/><feOffset dy="1"/><feGaussianBlur stdDeviation="2"/><feComposite in2="hardAlpha" operator="out"/><feColorMatrix values="0 0 0 0 0.670588 0 0 0 0 0.670588 0 0 0 0 0.670588 0 0 0 0.8 0"/><feBlend in2="BackgroundImageFix" result="effect1_dropShadow"/><feBlend in="SourceGraphic" in2="effect1_dropShadow" result="shape"/></filter><filter id="e" x="14.667" y="9.167" width="11.667" height="11.667" filterUnits="userSpaceOnUse" color-interpolation-filters="sRGB"><feFlood flood-opacity="0" result="BackgroundImageFix"/><feColorMatrix in="SourceAlpha" values="0 0 0 0 0 0 0 0 0 0 0 0 0 0 0 0 0 0 127 0" result="hardAlpha"/><feOffset dy="1"/><feGaussianBlur stdDeviation="2"/><feComposite in2="hardAlpha" operator="out"/><feColorMatrix values="0 0 0 0 0.670588 0 0 0 0 0.670588 0 0 0 0 0.670588 0 0 0 0.8 0"/><feBlend in2="BackgroundImageFix" result="effect1_dropShadow"/><feBlend in="SourceGraphic" in2="effect1_dropShadow" result="shape"/></filter><filter id="f" x="9.167" y=".917" width="11.667" height="11.667" filterUnits="userSpaceOnUse" color-interpolation-filters="sRGB"><feFlood flood-opacity="0" result="BackgroundImageFix"/><feColorMatrix in="SourceAlpha" values="0 0 0 0 0 0 0 0 0 0 0 0 0 0 0 0 0 0 127 0" result="hardAlpha"/><feOffset dy="1"/><feGaussianBlur stdDeviation="2"/><feComposite in2="hardAlpha" operator="out"/><feColorMatrix values="0 0 0 0 0.670588 0 0 0 0 0.670588 0 0 0 0 0.670588 0 0 0 0.8 0"/><feBlend in2="BackgroundImageFix" result="effect1_dropShadow"/><feBlend in="SourceGraphic" in2="effect1_dropShadow" result="shape"/></filter></defs></svg>